<svg xmlns="http://www.w3.org/2000/svg" width="512" height="512" viewBox="0 0 512 512">
  <defs>
    <linearGradient id="bg" x1="0%" y1="0%" x2="100%" y2="100%">
      <stop offset="0%" style="stop-color:#0d2137"/>
      <stop offset="100%" style="stop-color:#000b1d"/>
    </linearGradient>
    <linearGradient id="wave" x1="0%" y1="0%" x2="100%" y2="0%">
      <stop offset="0%" style="stop-color:#14b8a6"/>
      <stop offset="100%" style="stop-color:#06b6d4"/>
    </linearGradient>
  </defs>
  <rect width="512" height="512" rx="80" fill="url(#bg)"/>
  <!-- Ear icon -->
  <path d="M256 96c-60 0-108 48-108 108 0 38 19 70 48 92v32c0 22 18 40 40 40s40-18 40-40v-22c38-10 64-46 64-86 0-60-48-108-108-108zm-44 108c0-24 20-44 44-44s44 20 44 44-20 44-44 44-44-20-44-44z" fill="#14b8a6" opacity="0.85"/>
  <!-- Wave lines -->
  <path d="M128 372 Q172 348 216 372 Q260 396 304 372 Q348 348 392 372" stroke="url(#wave)" stroke-width="6" fill="none" stroke-linecap="round" opacity="0.7"/>
  <path d="M140 396 Q184 376 228 396 Q272 416 316 396 Q360 376 404 396" stroke="url(#wave)" stroke-width="4" fill="none" stroke-linecap="round" opacity="0.5"/>
  <!-- Text: HW -->
  <text x="256" y="252" font-family="Inter, sans-serif" font-size="40" font-weight="800" fill="#14b8a6" text-anchor="middle" opacity="0.9">HW</text>
</svg>
